<mxfile host="app.diagrams.net" modified="2024-05-04T10:16:00.939Z" agent="Mozilla/5.0 (Windows NT 10.0; Win64; x64) AppleWebKit/537.36 (KHTML, like Gecko) Chrome/122.0.0.0 YaBrowser/24.4.0.0 Safari/537.36" version="24.3.1" etag="WOhzC169i61n3xDpN6Xw" type="github">
  <diagram name="Страница — 1" id="gBlWFlM8YL3CNgg0f0Ax">
    <mxGraphModel>
      <root>
        <mxCell id="0" />
        <mxCell id="1" parent="0" />
      </root>
    </mxGraphModel>
  </diagram>
</mxfile>
